<svg xmlns="http://www.w3.org/2000/svg" fill="none" viewBox="0 0 24 24" id="Phone-Ringing-1--Streamline-Sharp.svg" height="24" width="24"><desc>Phone Ringing 1 Streamline Icon: https://streamlinehq.com</desc><g id="phone-ringing-1--android-phone-mobile-device-smartphone-iphone-ringing-incoming-call"><path id="Ellipse 453" stroke="#000000" d="M18.5498 12.4679C18.5498 8.5661 15.3866 5.4031 11.4848 5.4029" stroke-width="1.5"></path><path id="Ellipse 454" stroke="#000000" d="M22.8975 12.4679C22.8975 6.1648 17.7879 1.0552 11.4848 1.0552" stroke-width="1.5"></path><path id="Ellipse 441" stroke="#000000" d="M3.1926 14.707C1.9549 12.5223 1.2395 10.0807 1.1025 7.5735L5.4687 7.0507L7.0056 12.431L3.1926 14.7059ZM3.1926 14.707C3.9186 15.9841 4.8136 17.1573 5.8534 18.1949C6.9186 19.2601 8.0925 20.146 9.3425 20.8547M9.3425 20.8547C11.5265 22.0921 13.9673 22.8075 16.4738 22.9448L16.9977 18.5786L11.6174 17.0417L9.3414 20.8547Z" stroke-width="1.5"></path></g></svg>